0
SECTION
2
HEADER
0
ENDSEC
0
SECTION
2
TABLES
0
ENDSEC
0
SECTION
2
BLOCKS
0
ENDSEC
0
SECTION
2
ENTITIES
0
LINE
8
0
10
0.0
20
0.0
30
0.0
11
100.0
21
0.0
31
0.0
0
LINE
8
0
10
100.0
20
0.0
30
0.0
11
100.0
21
60.0
31
0.0
0
LINE
8
0
10
100.0
20
60.0
30
0.0
11
0.0
21
60.0
31
0.0
0
LINE
8
0
10
0.0
20
60.0
30
0.0
11
0.0
21
0.0
31
0.0
0
LINE
8
0
10
50.0
20
0.0
30
0.0
11
50.0
21
60.0
31
0.0
0
LINE
8
0
10
0.0
20
30.0
30
0.0
11
100.0
21
30.0
31
0.0
0
CIRCLE
8
0
10
25.0
20
15.0
30
0.0
40
8.0
0
ARC
8
0
10
75.0
20
45.0
30
0.0
40
10.0
50
0.0
51
270.0
0
ENDSEC
0
SECTION
2
OBJECTS
0
ENDSEC
0
EOF
